<svg width="32" height="32" viewBox="0 0 32 32" fill="none" xmlns="http://www.w3.org/2000/svg">
<path fill-rule="evenodd" clip-rule="evenodd" d="M13.2585 1.66675H18.7412C21.1918 1.66675 23.1332 1.66675 24.6518 1.87075C26.2145 2.08141 27.4798 2.52408 28.4785 3.52141C29.4758 4.52008 29.9185 5.78541 30.1292 7.34808C30.3332 8.86808 30.3332 10.8081 30.3332 13.2587V14.7387C30.3332 15.6227 30.3332 16.4241 30.3158 17.1454C30.3435 17.29 30.3389 17.4388 30.3025 17.5814C30.2798 18.1734 30.2425 18.7081 30.1785 19.1894C30.0158 20.3894 29.6718 21.4001 28.8692 22.2027C28.0665 23.0054 27.0558 23.3494 25.8558 23.5121C24.6998 23.6667 23.2292 23.6667 21.4065 23.6667H16.9998V28.3334H21.3332C21.5984 28.3334 21.8528 28.4388 22.0403 28.6263C22.2278 28.8138 22.3332 29.0682 22.3332 29.3334C22.3332 29.5986 22.2278 29.853 22.0403 30.0405C21.8528 30.2281 21.5984 30.3334 21.3332 30.3334H10.6665C10.4013 30.3334 10.1469 30.2281 9.95941 30.0405C9.77187 29.853 9.66651 29.5986 9.66651 29.3334C9.66651 29.0682 9.77187 28.8138 9.95941 28.6263C10.1469 28.4388 10.4013 28.3334 10.6665 28.3334H14.9998V23.6667H10.5932C8.77051 23.6667 7.29985 23.6667 6.14385 23.5121C4.94385 23.3494 3.93318 23.0054 3.13051 22.2027C2.32785 21.4001 1.98385 20.3894 1.82251 19.1894C1.75718 18.7094 1.71985 18.1734 1.69718 17.5814C1.66075 17.4388 1.6562 17.29 1.68385 17.1454C1.66651 16.4241 1.66651 15.6227 1.66651 14.7401V13.2587C1.66651 10.8081 1.66651 8.86675 1.87051 7.34808C2.08118 5.78541 2.52385 4.52008 3.52118 3.52141C4.51985 2.52408 5.78518 2.08141 7.34785 1.87075C8.86785 1.66675 10.8078 1.66675 13.2585 1.66675ZM3.74251 18.3334C3.75851 18.5414 3.77985 18.7374 3.80385 18.9227C3.93585 19.9014 4.17718 20.4187 4.54518 20.7881C4.91451 21.1574 5.43185 21.3974 6.41185 21.5294C7.41718 21.6641 8.75318 21.6667 10.6665 21.6667H21.3332C23.2465 21.6667 24.5812 21.6641 25.5892 21.5294C26.5678 21.3974 27.0852 21.1561 27.4545 20.7881C27.8238 20.4187 28.0638 19.9014 28.1958 18.9214C28.2215 18.726 28.242 18.5299 28.2572 18.3334H3.74251ZM28.3292 16.3334H3.67051C3.66518 15.8321 3.66518 15.2787 3.66518 14.6667V13.3334C3.66518 10.7907 3.66785 8.98541 3.85185 7.61341C4.03185 6.27341 4.37051 5.50008 4.93451 4.93608C5.49851 4.37208 6.27185 4.03341 7.61318 3.85341C8.98385 3.66941 10.7892 3.66675 13.3318 3.66675H18.6652C21.2078 3.66675 23.0145 3.66941 24.3852 3.85341C25.7252 4.03341 26.4985 4.37208 27.0625 4.93608C27.6265 5.50008 27.9652 6.27341 28.1452 7.61475C28.3292 8.98541 28.3318 10.7907 28.3318 13.3334V14.6667C28.3318 15.2787 28.3318 15.8321 28.3265 16.3334H28.3292Z" fill="#120B48"/>
</svg>
