<svg width="24" height="24" viewBox="0 0 24 24" fill="none" xmlns="http://www.w3.org/2000/svg">
<g clip-path="url(#clip0_11_7)">
<path d="M10.5 2C12.096 1.99989 13.6597 2.44911 15.0123 3.29623C16.3649 4.14336 17.4516 5.35417 18.1482 6.79009C18.8448 8.22602 19.123 9.82905 18.9511 11.4157C18.7792 13.0024 18.164 14.5086 17.176 15.762L20.828 19.414C21.0102 19.6026 21.1109 19.8552 21.1087 20.1174C21.1064 20.3796 21.0012 20.6304 20.8158 20.8158C20.6304 21.0012 20.3796 21.1064 20.1174 21.1087C19.8552 21.111 19.6026 21.0102 19.414 20.828L15.762 17.176C14.6974 18.015 13.4477 18.5872 12.117 18.8449C10.7863 19.1026 9.41332 19.0384 8.11251 18.6576C6.8117 18.2768 5.62082 17.5904 4.63923 16.6557C3.65764 15.7211 2.9138 14.5652 2.46977 13.2846C2.02574 12.004 1.8944 10.6357 2.0867 9.29404C2.279 7.95235 2.78937 6.67609 3.57523 5.57175C4.36109 4.46742 5.39964 3.56702 6.60425 2.94569C7.80886 2.32436 9.14459 2.00012 10.5 2ZM10.5 4C8.77609 4 7.12279 4.68482 5.9038 5.90381C4.68481 7.12279 3.99999 8.77609 3.99999 10.5C3.99999 12.2239 4.68481 13.8772 5.9038 15.0962C7.12279 16.3152 8.77609 17 10.5 17C12.2239 17 13.8772 16.3152 15.0962 15.0962C16.3152 13.8772 17 12.2239 17 10.5C17 8.77609 16.3152 7.12279 15.0962 5.90381C13.8772 4.68482 12.2239 4 10.5 4ZM10.5 5C11.9587 5 13.3576 5.57946 14.3891 6.61091C15.4205 7.64236 16 9.04131 16 10.5C16 11.9587 15.4205 13.3576 14.3891 14.3891C13.3576 15.4205 11.9587 16 10.5 16C9.0413 16 7.64236 15.4205 6.61091 14.3891C5.57946 13.3576 4.99999 11.9587 4.99999 10.5C4.99999 9.04131 5.57946 7.64236 6.61091 6.61091C7.64236 5.57946 9.0413 5 10.5 5Z" fill="white"/>
</g>
<defs>
<clipPath id="clip0_11_7">
<rect width="24" height="24" fill="white"/>
</clipPath>
</defs>
</svg>
